<?xml version="1.0" ?>
<!-- Uploaded to: SVG Repo, www.svgrepo.com, Generator: SVG Repo Mixer Tools -->
<svg width="800px" height="800px" viewBox="0 0 64 64" xmlns="http://www.w3.org/2000/svg">
<g id="a"/>
<g id="b"/>
<g id="c"/>
<g id="d"/>
<g id="e"/>
<g id="f"/>
<g id="g"/>
<g id="h"/>
<g id="i"/>
<g id="j"/>
<g id="k"/>
<g id="l"/>
<g id="m"/>
<g id="n"/>
<g id="o"/>
<g id="p"/>
<g id="q"/>
<g id="r"/>
<g id="s"/>
<g id="t"/>
<g id="u"/>
<g id="v"/>
<g id="w"/>
<g id="x"/>
<g id="y"/>
<g id="a`"/>
<g id="aa"/>
<g id="ab"/>
<g id="ac"/>
<g id="ad"/>
<g id="ae"/>
<g id="af"/>
<g id="ag"/>
<g id="ah"/>
<g id="ai"/>
<g id="aj">
<path d="M26.58,47.09c23.54,9.1,32.42,2.2,32.42,9.08,0,1.4-1.25,2.53-2.8,2.53H7.8c-1.55,0-2.8-1.13-2.8-2.53,0-2.95,1.2-16.95,21.58-9.08Z" fill="#a6e5f0" fill-rule="evenodd"/>
<polygon fill="#feccba" fill-rule="evenodd" points="25.65 50.73 27.2 40.92 32.85 38.35 38.09 40.92 38.66 44.52 35.25 51.84 25.65 50.73"/>
<path d="M25.09,17.37l5.91-9.34c.13-.21,.3-.38,.48-.52l5.02,4.01,3.7,5.85-8.05,1.43-7.06-1.43Z" fill="#9af6d3" fill-rule="evenodd"/>
<path d="M24.14,29.76c-1.49,2.36-2.99,4.72-4.48,7.08-.08,.12-.14,.24-.2,.37l13.49,3.71h10.44c2.1,0,3.37-2.31,2.25-4.08l-4.48-7.08-9.18-3.69-7.83,3.69Z" fill="#9af6d3" fill-rule="evenodd"/>
<path d="M31.21,29.76h-7.07c-1.66,0-2.67-1.83-1.78-3.23,1.15-1.82,2.3-3.64,3.45-5.45l7.09-2.05,6.58,2.05,3.15,4.98-11.42,3.71Z" fill="#6df4c0" fill-rule="evenodd"/>
<path d="M37.42,47.09c-23.54,9.1-32.42,2.2-32.42,9.08,0,1.4,1.25,2.53,2.8,2.53H56.2c1.55,0,2.8-1.13,2.8-2.53,0-2.95-1.2-16.95-21.58-9.08Z" fill="#d1f1f4" fill-rule="evenodd"/>
<path d="M33.74,10.91c.59,.93,1.83,1.21,2.76,.62,.93-.59,1.21-1.83,.62-2.76l-1.14-1.8c-.42-.66-1.01-1.17-1.67-1.47-.21-.1-.44-.16-.67-.18-.84-.07-1.63,.39-1.98,1.15-.46,.99-.04,2.17,.95,2.64l1.14,1.8Z" fill="#f0f4f6" fill-rule="evenodd"/>
<path d="M47.92,42.74c-3.07,.02-6.78,.77-11.21,2.49-.83,.32-1.64,.62-2.44,.9-1.04,.37-1.58,1.51-1.21,2.55,.37,1.04,1.51,1.59,2.55,1.22,.83-.29,1.67-.61,2.54-.94,1.88-.73,3.56-1.25,5.07-1.61,1.32-.32,2.41,.64,2.41,1.99v.63c0,1.03,.83,1.86,1.86,1.86s1.86-.83,1.86-1.86v-.75c0-1.35,1.12-2.4,2.39-1.94,.77,.28,1.4,.63,1.93,1.03,.88,.66,2.14,.48,2.8-.4,.66-.88,.48-2.14-.4-2.8-1.87-1.4-4.35-2.29-7.54-2.36-.2,0-.4,0-.6,0Z" fill="#f0f4f6" fill-rule="evenodd"/>
<path d="M19.03,37.22c-1.03,0-1.85,.83-1.85,1.85s.83,1.85,1.85,1.85h.38c.38,0,.68,.3,.68,.68,0,1.05,.85,1.9,1.9,1.9s1.91-.85,1.91-1.9c0-.38,.3-.68,.68-.68h8.37c1.03,0,1.85-.83,1.85-1.85s-.83-1.85-1.85-1.85h-13.92Z" fill="#f0f4f6" fill-rule="evenodd"/>
<path d="M25.09,17.37c-1.03,0-1.85,.83-1.85,1.85s.83,1.85,1.85,1.85h1.29c.51,0,.93,.41,.93,.93,0,.96,.78,1.74,1.74,1.74s1.74-.78,1.74-1.74c0-.51,.42-.93,.93-.93h8.05c1.03,0,1.85-.83,1.85-1.85s-.83-1.85-1.85-1.85h-14.68Z" fill="#f0f4f6" fill-rule="evenodd"/>
<path d="M31.21,26.06c-1.03,0-1.85,.83-1.85,1.85s.83,1.85,1.85,1.85h2.18c.82,0,1.48,.66,1.48,1.48v1.12c0,1.05,.85,1.9,1.9,1.9s1.9-.85,1.9-1.9v-1.12c0-.82,.66-1.48,1.48-1.48h3.74c1.03,0,1.85-.83,1.85-1.85s-.83-1.85-1.85-1.85h-12.68Z" fill="#f0f4f6" fill-rule="evenodd"/>
</g>
<g id="ak"/>
<g id="al"/>
<g id="am"/>
<g id="an"/>
<g id="ao"/>
<g id="ap"/>
<g id="aq"/>
<g id="ar"/>
<g id="as"/>
<g id="at"/>
<g id="au"/>
<g id="av"/>
<g id="aw"/>
<g id="ax"/>
</svg>